Coordinates
version=1
nRows=12
nColumns=34
inDegrees=no

Units are S.I. units (second, meters, Newtons, ...)
If the header above contains a line with 'inDegrees', this indicates whether rotational values are in degrees (yes) or radians (no).

endheader
time	pelvis_tilt	pelvis_list	pelvis_rotation	pelvis_tx	pelvis_ty	pelvis_tz	hip_flexion_r	hip_adduction_r	hip_rotation_r	knee_angle_r	ankle_angle_r	subtalar_angle_r	mtp_angle_r	hip_flexion_l	hip_adduction_l	hip_rotation_l	knee_angle_l	ankle_angle_l	subtalar_angle_l	mtp_angle_l	lumbar_extension	lumbar_bending	lumbar_rotation	arm_flex_r	arm_add_r	arm_rot_r	elbow_flex_r	pro_sup_r	arm_flex_l	arm_add_l	arm_rot_l	elbow_flex_l	pro_sup_l
1.16	-0.158119	-0.0672137	-0.0077788	-0.53234	1.14241	-0.571163	0.681271	-0.142773	-0.111795	0.455425	-0.502142	-0.215321	-0.019656	0.684479	-0.287497	-0.220993	0.472183	-0.674812	-0.347957	-0.019656	-0.537254	0.02673	-0.0314523	-0.738172	-0.503276	-0.295836	1.72234	2.07703	-0.609029	-0.411593	-0.295655	2.10502	2.09235
1.17	-0.15765	-0.063293	-0.00838817	-0.521434	1.11419	-0.570752	0.715261	-0.145877	-0.0797858	0.538019	-0.392141	-0.233922	-0.019656	0.719186	-0.285809	-0.178433	0.580033	-0.479525	-0.356256	-0.019656	-0.532711	0.0248083	-0.0427557	-0.698665	-0.475061	-0.286461	1.69048	2.06502	-0.571519	-0.403978	-0.29095	2.05973	2.07933
1.18	-0.158672	-0.0599468	-0.00898074	-0.511681	1.08528	-0.570102	0.754732	-0.149139	-0.0503597	0.62533	-0.286044	-0.247238	-0.019656	0.759292	-0.28519	-0.138732	0.686656	-0.308274	-0.360109	-0.019656	-0.529035	0.0229117	-0.0511589	-0.654781	-0.447918	-0.279022	1.66246	2.05508	-0.528095	-0.397749	-0.283028	2.0193	2.06947
1.19	-0.161137	-0.0572151	-0.0095599	-0.503272	1.05596	-0.569257	0.799557	-0.152555	-0.0236515	0.717059	-0.184662	-0.255363	-0.019656	0.804703	-0.285673	-0.101916	0.791902	-0.161376	-0.359728	-0.019656	-0.526324	0.0210893	-0.0565979	-0.606567	-0.421892	-0.273536	1.63835	2.04723	-0.478546	-0.392892	-0.271684	1.98357	2.06278
1.2	-0.164874	-0.0552119	-0.0101545	-0.49613	1.02638	-0.568432	0.849295	-0.15611	-2.78798e-05	0.812344	-0.090011	-0.258605	-0.019656	0.855052	-0.28735	-0.0679927	0.895405	-0.0391272	-0.355603	-0.019656	-0.524886	0.0194689	-0.0588831	-0.554188	-0.397142	-0.270028	1.61835	2.04154	-0.422413	-0.389323	-0.256417	1.95218	2.05923
1.21	-0.169516	-0.0541105	-0.010851	-0.490017	0.99721	-0.567589	0.903009	-0.159776	0.0199715	0.90968	-0.00479889	-0.25752	-0.019656	0.909478	-0.290349	-0.0368956	0.99656	0.059012	-0.348376	-0.019656	-0.525286	0.0182226	-0.057721	-0.497952	-0.37401	-0.268469	1.6029	2.038	-0.359176	-0.38682	-0.236524	1.92471	2.05869
1.22	-0.174521	-0.0540593	-0.0117986	-0.48447	0.969961	-0.566688	0.959211	-0.16354	0.0358478	1.00705	0.0686732	-0.252792	-0.019656	0.966472	-0.294749	-0.00847137	1.09445	0.135035	-0.338668	-0.019656	-0.528253	0.0174633	-0.0528809	-0.43825	-0.353062	-0.268613	1.59253	2.03636	-0.288546	-0.384997	-0.211362	1.90087	2.06088
1.23	-0.179302	-0.0550861	-0.0131691	-0.479166	0.945204	-0.565838	1.01602	-0.167437	0.0473878	1.10215	0.129465	-0.245026	-0.019656	1.02401	-0.300476	0.0175053	1.18786	0.192446	-0.327004	-0.019656	-0.534444	0.0171564	-0.0443886	-0.375471	-0.335049	-0.26988	1.58782	2.03614	-0.210682	-0.383358	-0.180566	1.88052	2.06523
1.24	-0.183442	-0.0570525	-0.0151033	-0.474388	0.922081	-0.565066	1.07152	-0.171554	0.0548251	1.19273	0.178305	-0.234611	-0.019656	1.07996	-0.307263	0.0413094	1.27546	0.235724	-0.313841	-0.019656	-0.544159	0.0171032	-0.032635	-0.309936	-0.320809	-0.27132	1.58919	2.03665	-0.126257	-0.381398	-0.144178	1.86367	2.07084
1.25	-0.186849	-0.0596694	-0.0176852	-0.470414	0.89992	-0.564328	1.12418	-0.175979	0.0588679	1.27687	0.217221	-0.221693	-0.019656	1.13265	-0.31469	0.063232	1.35614	0.269433	-0.299654	-0.019656	-0.557147	0.0169837	-0.0183562	-0.241845	-0.311139	-0.271691	1.5968	2.03729	-0.0363696	-0.378698	-0.102662	1.85038	2.07654
1.26	-0.189776	-0.0625578	-0.0209444	-0.467177	0.878523	-0.563587	1.17316	-0.180746	0.0605903	1.35333	0.248801	-0.206285	-0.019656	1.1812	-0.32227	0.0835487	1.4293	0.297347	-0.285035	-0.019656	-0.572614	0.0164292	-0.00251607	-0.17124	-0.306666	-0.269607	1.61042	2.03762	0.0576376	-0.37499	-0.0568388	1.84065	2.08099
1.27	-0.192692	-0.0653391	-0.0248636	-0.464487	0.857854	-0.562813	1.21837	-0.185782	0.061209	1.42164	0.275437	-0.188456	-0.019656	1.22563	-0.329545	0.102521	1.49496	0.321918	-0.270734	-0.019656	-0.589432	0.0151129	0.0138552	-0.0979927	-0.307734	-0.263738	1.62938	2.0375	0.154386	-0.370184	-0.00777852	1.83431	2.08297
